<mxfile host="app.diagrams.net" modified="2023-07-14T08:59:08.176Z" agent="Mozilla/5.0 (Windows NT 10.0; Win64; x64) AppleWebKit/537.36 (KHTML, like Gecko) Chrome/114.0.0.0 Safari/537.36" etag="Lf46hnI2FOnGh7QT9b8x" version="21.6.2" type="device">
  <diagram name="Page-1" id="1YRHAizjSWOm0qdDqU5r">
    <mxGraphModel dx="784" dy="379" grid="1" gridSize="10" guides="1" tooltips="1" connect="1" arrows="1" fold="1" page="1" pageScale="1" pageWidth="827" pageHeight="1169" math="0" shadow="0">
      <root>
        <mxCell id="0" />
        <mxCell id="1" parent="0" />
        <mxCell id="IRHucIBJhyLnKCHNsG0P-4" value="" style="rounded=0;whiteSpace=wrap;html=1;" parent="1" vertex="1">
          <mxGeometry x="460" y="100" width="100" height="290" as="geometry" />
        </mxCell>
        <mxCell id="IRHucIBJhyLnKCHNsG0P-5" value="&lt;font face=&quot;computer modern&quot; style=&quot;font-size: 12px;&quot; data-font-src=&quot;https://fonts.googleapis.com/css?family=computer+modern&quot;&gt;Chargeur de&lt;br&gt;démarrage&lt;br&gt;&lt;/font&gt;" style="rounded=0;whiteSpace=wrap;html=1;fillColor=#f5f5f5;fontColor=#333333;strokeColor=#666666;" parent="1" vertex="1">
          <mxGeometry x="460" y="340" width="100" height="50" as="geometry" />
        </mxCell>
        <mxCell id="IRHucIBJhyLnKCHNsG0P-6" value="&lt;font data-font-src=&quot;https://fonts.googleapis.com/css?family=computer+modern&quot; face=&quot;computer modern&quot;&gt;Métadonnées&lt;/font&gt;" style="rounded=0;whiteSpace=wrap;html=1;fillColor=#f5f5f5;fontColor=#333333;strokeColor=#666666;" parent="1" vertex="1">
          <mxGeometry x="460" y="320" width="100" height="20" as="geometry" />
        </mxCell>
        <mxCell id="IRHucIBJhyLnKCHNsG0P-7" value="&lt;font data-font-src=&quot;https://fonts.googleapis.com/css?family=computer+modern&quot; face=&quot;computer modern&quot;&gt;Entête&lt;/font&gt;" style="rounded=0;whiteSpace=wrap;html=1;fillColor=#f5f5f5;fontColor=#333333;strokeColor=#666666;" parent="1" vertex="1">
          <mxGeometry x="460" y="290" width="100" height="30" as="geometry" />
        </mxCell>
        <mxCell id="IRHucIBJhyLnKCHNsG0P-19" value="&lt;pre style=&quot;border-color: var(--border-color); line-height: 11px;&quot;&gt;&lt;font style=&quot;&quot; face=&quot;computer modern&quot;&gt;&lt;span style=&quot;font-size: 11px;&quot;&gt;Schéma mémoire&lt;br/&gt;du microcontrôleur &lt;/span&gt;&lt;/font&gt;&lt;/pre&gt;" style="text;html=1;strokeColor=none;fillColor=none;align=center;verticalAlign=middle;whiteSpace=wrap;rounded=0;" parent="1" vertex="1">
          <mxGeometry x="460" y="70" width="100" height="30" as="geometry" />
        </mxCell>
        <mxCell id="EUJNejaqngc6AC3HYtj4-2" value="&lt;font data-font-src=&quot;https://fonts.googleapis.com/css?family=computer+modern&quot; face=&quot;computer modern&quot;&gt;Micrologiciel&lt;/font&gt;" style="rounded=0;whiteSpace=wrap;html=1;fillColor=#f5f5f5;fontColor=#333333;strokeColor=#666666;" vertex="1" parent="1">
          <mxGeometry x="460" y="210" width="100" height="80" as="geometry" />
        </mxCell>
        <mxCell id="EUJNejaqngc6AC3HYtj4-5" value="" style="shape=curlyBracket;whiteSpace=wrap;html=1;rounded=1;labelPosition=left;verticalLabelPosition=middle;align=right;verticalAlign=middle;" vertex="1" parent="1">
          <mxGeometry x="430" y="320" width="30" height="70" as="geometry" />
        </mxCell>
        <mxCell id="EUJNejaqngc6AC3HYtj4-6" value="" style="shape=curlyBracket;whiteSpace=wrap;html=1;rounded=1;labelPosition=left;verticalLabelPosition=middle;align=right;verticalAlign=middle;" vertex="1" parent="1">
          <mxGeometry x="430" y="210" width="30" height="110" as="geometry" />
        </mxCell>
        <mxCell id="EUJNejaqngc6AC3HYtj4-7" value="&lt;font data-font-src=&quot;https://fonts.googleapis.com/css?family=computer+modern&quot; face=&quot;computer modern&quot;&gt;Mémoire réservée au chargeur de démarrage&lt;/font&gt;" style="text;html=1;strokeColor=none;fillColor=none;align=center;verticalAlign=middle;whiteSpace=wrap;rounded=0;" vertex="1" parent="1">
          <mxGeometry x="310" y="330" width="120" height="50" as="geometry" />
        </mxCell>
        <mxCell id="EUJNejaqngc6AC3HYtj4-8" value="&lt;font data-font-src=&quot;https://fonts.googleapis.com/css?family=computer+modern&quot; face=&quot;computer modern&quot;&gt;Mémoire réservée au micrologiciel&lt;/font&gt;" style="text;html=1;strokeColor=none;fillColor=none;align=center;verticalAlign=middle;whiteSpace=wrap;rounded=0;" vertex="1" parent="1">
          <mxGeometry x="310" y="240" width="120" height="50" as="geometry" />
        </mxCell>
      </root>
    </mxGraphModel>
  </diagram>
</mxfile>
